<?xml version="1.0" encoding="UTF-8"?>
<!DOCTYPE svg PUBLIC "-//W3C//DTD SVG 1.1//EN" "http://www.w3.org/Graphics/SVG/1.1/DTD/svg11.dtd">
<svg version="1.1" xmlns="http://www.w3.org/2000/svg" xmlns:xlink="http://www.w3.org/1999/xlink" x="0px" y="0px" width="245" height="245" viewBox="0, 0, 245, 245">
  <g id="Layer_2">
    <path d="M122.5,244.5 C55.121,244.5 0.5,189.879 0.5,122.5 C0.5,55.121 55.121,0.5 122.5,0.5 C189.879,0.5 244.5,55.121 244.5,122.5 C244.5,189.879 189.879,244.5 122.5,244.5 z" fill="#1ABC9C"/>
    <path d="M177.189,54.494 C180.081,57.964 181.388,59.088 183.141,64.031 C187.986,77.69 179.228,91.989 172.809,103.432 L172.646,103.718 L172.732,103.79 C186.297,115.237 199.958,126.563 213.418,138.132 C215.82,140.37 212.578,149.783 212.578,149.783 C191.145,143.983 169.814,137.816 148.452,131.763 L147.728,132.484 C135.402,144.581 122.572,156.147 109.549,167.484 L109.305,167.691 L112.712,182.601 L104.253,189.179 L96.823,178.026 C95.176,179.367 93.461,180.622 91.667,181.757 C85.125,186.13 76.667,180.468 75.662,174.659 C75.612,173.907 75.601,174.238 75.655,173.665 L59.112,175.592 L63.679,163.868 L67.769,162.14 L55.281,148.179 L59.93,141.513 L86.599,145.429 C91.707,134.896 88.42,141.575 96.632,125.479 L97.372,124.098 C73.755,123.152 50.156,121.828 26.56,120.465 C26.561,120.465 34.683,108.959 35.859,107.132 C36.803,106.565 37.907,106.416 38.96,106.163 C64.258,100.596 89.785,96.088 115.248,91.357 C119.175,84.456 123.13,77.566 127.296,70.805 C128.854,68.277 130.56,65.033 132.698,62.81 C137.347,58.592 147.627,58.016 147.627,58.016 C147.627,58.016 161.658,38.177 177.189,54.494 z z" fill="#34495E"/>
    <path d="M91.978,185.287 C95.07,186.847 93.062,185.552 96.559,190.802 C94.536,194.284 95.638,192.432 93.234,196.347 C89.307,202.584 84.411,209.515 78.48,216.964 C70.223,226.965 74.241,222.383 66.518,230.791 C58.729,226.561 61.527,228.383 57.798,225.865 C66.738,216.134 62.388,221.126 70.845,210.885 C76.547,203.723 81.236,197.086 84.975,191.147 L86.123,189.276 L86.175,189.261 C88.345,188.034 87.027,188.825 90.055,186.768 z M74.743,186.848 C77.047,189.592 81.322,190.698 84.695,189.699 C80.577,195.468 82.897,192.327 77.667,199.071 C66.543,212.544 73.427,204.49 56.568,222.846 L55.221,224.124 C48.666,219.696 51.279,221.726 47.161,218.328 C57.1,209.02 65.79,198.46 74.119,187.721 z M71.41,180.464 C71.355,181.038 71.367,180.706 71.417,181.459 C72.258,184.015 71.65,183.023 72.928,184.604 C63.233,196.301 64.226,195.471 50.686,209.241 C48.503,211.461 46.1,213.454 43.807,215.56 C39.082,211.661 41.49,213.826 36.653,208.989 C46.253,200.673 54.618,191.077 62.869,181.459 z" fill="#34495E"/>
  </g>
  <defs/>
</svg>
